<svg xmlns="http://www.w3.org/2000/svg" viewBox="0 0 1024 1024" role="img" aria-label="Auto Ride app icon">
  <defs>
    <linearGradient id="bg" x1="120" y1="120" x2="900" y2="920" gradientUnits="userSpaceOnUse">
      <stop offset="0" stop-color="#26211D"/>
      <stop offset="0.56" stop-color="#1C1917"/>
      <stop offset="1" stop-color="#0F766E"/>
    </linearGradient>
    <linearGradient id="roof" x1="270" y1="310" x2="790" y2="430" gradientUnits="userSpaceOnUse">
      <stop offset="0" stop-color="#FDBA74"/>
      <stop offset="1" stop-color="#F97316"/>
    </linearGradient>
    <filter id="shadow" x="-20%" y="-20%" width="140%" height="140%">
      <feDropShadow dx="0" dy="28" stdDeviation="24" flood-color="#000" flood-opacity="0.35"/>
    </filter>
  </defs>

  <rect width="1024" height="1024" rx="232" fill="url(#bg)"/>
  <path d="M136 760c126 58 268 88 426 88 118 0 226-17 326-50" fill="none" stroke="#138808" stroke-width="64" stroke-linecap="round"/>
  <path d="M156 700c120 48 252 72 396 72 116 0 220-15 312-46" fill="none" stroke="#F97316" stroke-width="22" stroke-linecap="round" opacity="0.95"/>

  <g filter="url(#shadow)">
    <path d="M265 565h494c38 0 71 29 77 67l10 69H733l-18-51H379l-18 51H236l10-71c6-37 38-65 76-65Z" fill="#FFFFFF"/>
    <path d="M306 522c25-115 116-199 226-199h105c74 0 137 54 150 128l13 71H306Z" fill="url(#roof)"/>
    <path d="M378 501c25-74 83-123 151-123h89c47 0 88 32 101 78l13 45H378Z" fill="#1C1917"/>
    <path d="M414 480c23-44 66-72 114-72h78c30 0 57 18 70 44l14 28H414Z" fill="#DFF7F1"/>
    <path d="M260 553h91c15 0 28 12 28 28v55H239l5-45c3-22 16-38 16-38Z" fill="#F97316"/>
    <path d="M714 553h69c27 0 50 19 55 46l7 37H718v-55c0-16-4-28-4-28Z" fill="#F97316"/>
    <path d="M411 555h268v86H411z" fill="#1C1917"/>
    <path d="M452 586h184" stroke="#DFF7F1" stroke-width="18" stroke-linecap="round"/>
    <circle cx="343" cy="704" r="68" fill="#1C1917"/>
    <circle cx="343" cy="704" r="31" fill="#FFFFFF"/>
    <circle cx="721" cy="704" r="68" fill="#1C1917"/>
    <circle cx="721" cy="704" r="31" fill="#FFFFFF"/>
    <circle cx="532" cy="704" r="43" fill="#1C1917"/>
    <circle cx="532" cy="704" r="18" fill="#FFFFFF"/>
    <path d="M250 656h598" stroke="#1C1917" stroke-width="24" stroke-linecap="round"/>
    <path d="M290 616h61M724 616h73" stroke="#FFFFFF" stroke-width="20" stroke-linecap="round"/>
    <path d="M328 319c-55 19-100 59-124 113" stroke="#F97316" stroke-width="34" stroke-linecap="round"/>
    <path d="M684 319c61 18 111 61 139 119" stroke="#F97316" stroke-width="34" stroke-linecap="round"/>
  </g>
</svg>
